# xmcd
#
# Track frame offsets:
#	150
#	17645
#	32782
#	54177
#	65530
#	95470
#	108190
#	125570
#	147090
#	174437
#	204350
#	222745
#	234895
#	254355
#	268497
#	285260
#	299167
#	312825
#
# Disc length: 4383 seconds
#
# Revision: 1
# Processed by: cddbd v1.5.1PL0 Copyright (c) Steve Scherf et al.
# Submitted via: CDex 1.50Beta5
#
DISCID=0e111d12
DTITLE=Various Artist - Tv-Classics/Tvドラマ＆シネマ編 [CD1]
DYEAR=2003
DGENRE=Classical
TTITLE0=ショパン/夜想曲第20番嬰ハ短調（遺作）
TTITLE1=チャイコフスキー/ヴァイオリン協奏曲ニ長調作品35〜第3楽章より抜粋
TTITLE2=ベートーヴェン/ピアノ・ソナタ第8番ハ短調作品18「悲愴」〜第2楽章
TTITLE3=J.S.バッハ/無伴奏チェロ組曲第1番ト長調BWV1007
TTITLE4=タルレガ/アルハンブラの思いで
TTITLE5=ショパン/革命のエチュード（12の練習曲第12番ハ短調作品10-12）
TTITLE6=ベルリオーズ/幻想交響曲作品14〜第5楽章より抜粋
TTITLE7=マーラー/交響曲第5番嬰ハ短調〜アダージェットより抜粋
TTITLE8=シューベルト/アヴェ・マリア
TTITLE9=J.シュトラウス?/ワルツ「春の声」作品410
TTITLE10=ショパン/別れの曲（12の練習曲第3番ホ長調作品10-3）
TTITLE11=エルガー/愛のあいさつ
TTITLE12=J.S.バッハ/ゴールドベルク変奏曲BWV988〜アリア
TTITLE13=マスカーニ/歌劇「カヴァレリア・ルスティカーナ」〜間奏曲
TTITLE14=ラフマニノフ/交響曲第2番ホ短調作品27〜第3楽章より抜粋
TTITLE15=サン＝サーンス/組曲「動物の謝肉祭」〜白鳥
TTITLE16=チャイコフスキー/バレエ音楽「白鳥の湖」作品20〜情景
TTITLE17=ヘンデル/「メサイヤ」〜第44曲ハレルヤ・コーラス
EXTD=
EXTT0=
EXTT1=
EXTT2=
EXTT3=
EXTT4=
EXTT5=
EXTT6=
EXTT7=
EXTT8=
EXTT9=
EXTT10=
EXTT11=
EXTT12=
EXTT13=
EXTT14=
EXTT15=
EXTT16=
EXTT17=
PLAYORDER=
